<svg width="21" height="13" viewBox="0 0 21 13" fill="none" xmlns="http://www.w3.org/2000/svg">
<path fill-rule="evenodd" clip-rule="evenodd" d="M12.9999 1.73333H19.0665V0H12.9999V1.73333ZM16.1415 13C18.8039 13 20.1792 11.5241 20.5623 10.4H17.8167C16.8591 11.5119 13.9532 11.4244 13.8405 8.64153H20.7972C20.8093 7.81647 20.7824 7.2254 20.7148 6.78687C20.3586 4.4954 18.7276 2.951 16.0566 2.951C13.3344 2.951 11.3194 4.693 11.3194 8.08167C11.3194 11.5015 13.4774 13 16.1415 13ZM13.9012 6.93333H18.2041C18.1131 5.5926 17.2196 5.0102 16.0574 5.0102C14.7869 5.0102 14.084 5.6758 13.9012 6.93333ZM0 12.9896H5.60381C11.4832 12.9896 11.3827 7.0954 8.38318 6.0034C10.8618 4.73633 10.7717 0.0884 6.02587 0.0182H0V12.9896ZM2.59997 5.2H5.70607C7.87965 5.2 8.22458 2.6 5.43567 2.6H2.59997V5.2ZM2.59997 7.8H5.53881C7.98105 7.8 8.14311 10.4139 5.49547 10.4139H2.59997V7.8Z" fill="#FC3358" fill-opacity="0.5"/>
</svg>
