<?xml version="1.0" encoding="UTF-8"?>
<svg xmlns="http://www.w3.org/2000/svg" xmlns:xlink="http://www.w3.org/1999/xlink" viewBox="0 0 24 24" width="24px" height="24px">
<g id="surface153816794">
<path style=" stroke:none;fill-rule:nonzero;fill:rgb(100%,100%,100%);fill-opacity:1;" d="M 18.261719 2.398438 C 17.851562 2.398438 17.445312 2.554688 17.132812 2.867188 L 15.199219 4.800781 L 19.199219 8.800781 L 21.132812 6.867188 C 21.757812 6.242188 21.757812 5.230469 21.132812 4.605469 L 19.394531 2.867188 C 19.082031 2.554688 18.671875 2.398438 18.261719 2.398438 Z M 13.601562 6.398438 L 4.207031 15.792969 C 4.207031 15.792969 4.941406 15.726562 5.214844 16 C 5.488281 16.273438 5.265625 18.0625 5.601562 18.398438 C 5.9375 18.734375 7.714844 18.5 7.96875 18.753906 C 8.226562 19.011719 8.207031 19.792969 8.207031 19.792969 L 17.601562 10.398438 Z M 3.199219 18.398438 L 2.445312 20.539062 C 2.414062 20.621094 2.398438 20.710938 2.398438 20.800781 C 2.398438 21.242188 2.757812 21.601562 3.199219 21.601562 C 3.289062 21.601562 3.378906 21.585938 3.460938 21.554688 C 3.464844 21.554688 3.46875 21.550781 3.46875 21.550781 L 3.492188 21.546875 C 3.492188 21.542969 3.492188 21.542969 3.496094 21.542969 L 5.601562 20.800781 L 4.398438 19.601562 Z M 3.199219 18.398438 "/>
</g>
</svg>
