<svg width="16" height="16" viewBox="0 0 16 16" fill="none" xmlns="http://www.w3.org/2000/svg">
<path fill-rule="evenodd" clip-rule="evenodd" d="M4.702 0.048C5.55533 0.00933333 5.82733 0 8 0C10.1727 0 10.4453 0.00933333 11.2993 0.0486667C14.2073 0.182 15.8213 1.79933 15.952 4.702C15.9907 5.55533 16 5.82733 16 8C16 10.1727 15.9907 10.4453 15.9513 11.2987C15.82 14.2067 14.2013 15.8187 11.2987 15.952C10.4453 15.9907 10.1727 16 8 16C5.82733 16 5.55533 15.9907 4.70133 15.952C1.79333 15.8187 0.181333 14.204 0.048 11.2987C0.00933333 10.4453 0 10.1727 0 8C0 5.82733 0.00933333 5.55533 0.0486667 4.70133C0.182 1.79333 1.79667 0.181333 4.702 0.048ZM3.892 8C3.892 5.73133 5.73133 3.892 8 3.892C10.2687 3.892 12.108 5.73133 12.108 8C12.108 10.2693 10.2687 12.1087 8 12.1087C5.73133 12.1087 3.892 10.2687 3.892 8ZM8 10.6667C6.52733 10.6667 5.33333 9.47333 5.33333 8C5.33333 6.52733 6.52733 5.33333 8 5.33333C9.47267 5.33333 10.6667 6.52733 10.6667 8C10.6667 9.47333 9.47267 10.6667 8 10.6667ZM11.31 3.73C11.31 3.2 11.74 2.77 12.2707 2.77C12.8007 2.77 13.23 3.2 13.23 3.73C13.23 4.26 12.8007 4.69 12.2707 4.69C11.74 4.69 11.31 4.26 11.31 3.73Z" fill="#FC3358" fill-opacity="0.5"/>
</svg>
