<svg width="17" height="14" viewBox="0 0 17 14" fill="none" xmlns="http://www.w3.org/2000/svg">
<path fill-rule="evenodd" clip-rule="evenodd" d="M17 1.63554C16.3745 1.91321 15.7023 2.10021 14.9968 2.1845C15.7172 1.75312 16.2704 1.06958 16.5304 0.255C15.8567 0.6545 15.1102 0.944917 14.3154 1.10146C13.68 0.423583 12.7727 0 11.7697 0C9.51787 0 7.86321 2.10092 8.37179 4.28188C5.474 4.13667 2.90417 2.74833 1.18362 0.638208C0.269875 2.20575 0.70975 4.25638 2.26242 5.29479C1.6915 5.27637 1.15317 5.11983 0.683542 4.85846C0.645292 6.47417 1.80342 7.98575 3.48075 8.32221C2.98988 8.45537 2.45225 8.48654 1.90542 8.38171C2.34883 9.76721 3.63658 10.7752 5.16375 10.8035C3.6975 11.9531 1.85017 12.4667 0 12.2485C1.54346 13.238 3.37733 13.8153 5.3465 13.8153C11.8221 13.8153 15.4806 8.34629 15.2596 3.44108C15.941 2.94879 16.5325 2.33467 17 1.63554Z" fill="black"/>
</svg>
